<?xml version="1.0" encoding="UTF-8" standalone="no"?>
<!DOCTYPE svg PUBLIC "-//W3C//DTD SVG 1.1//EN"
 "http://www.w3.org/Graphics/SVG/1.1/DTD/svg11.dtd">
<!-- Generated by graphviz version 2.43.0 (0)
 -->
<!-- Title: model Pages: 1 -->
<svg width="187pt" height="810pt"
 viewBox="0.00 0.00 187.00 810.00" xmlns="http://www.w3.org/2000/svg" xmlns:xlink="http://www.w3.org/1999/xlink">
<g id="graph0" class="graph" transform="scale(1 1) rotate(0) translate(4 806)">
<title>model</title>
<polygon fill="white" stroke="transparent" points="-4,4 -4,-806 183,-806 183,4 -4,4"/>
<!-- 0 -->
<g id="node1" class="node">
<title>0</title>
<polygon fill="lightyellow" stroke="transparent" points="157.5,-802 21.5,-802 21.5,-770 157.5,-770 157.5,-802"/>
<polygon fill="none" stroke="black" points="21.5,-770 21.5,-802 91.5,-802 91.5,-770 21.5,-770"/>
<text text-anchor="start" x="26.5" y="-789" font-family="Linux libertine" font-size="10.00">input&#45;tensor</text>
<text text-anchor="start" x="38" y="-778" font-family="Linux libertine" font-size="10.00">depth:0</text>
<polygon fill="none" stroke="black" points="91.5,-770 91.5,-802 157.5,-802 157.5,-770 91.5,-770"/>
<text text-anchor="start" x="96.5" y="-783.5" font-family="Linux libertine" font-size="10.00">(1, 720, 20)</text>
</g>
<!-- 1 -->
<g id="node2" class="node">
<title>1</title>
<polygon fill="#c1ffc1" stroke="transparent" points="179,-734 0,-734 0,-692 179,-692 179,-734"/>
<polygon fill="none" stroke="black" points="0.5,-692 0.5,-734 62.5,-734 62.5,-692 0.5,-692"/>
<text text-anchor="start" x="5.5" y="-716" font-family="Linux libertine" font-size="10.00">Sequential</text>
<text text-anchor="start" x="13" y="-705" font-family="Linux libertine" font-size="10.00">depth:3</text>
<polygon fill="none" stroke="black" points="62.5,-713 62.5,-734 110.5,-734 110.5,-713 62.5,-713"/>
<text text-anchor="start" x="72.5" y="-721" font-family="Linux libertine" font-size="10.00">input:</text>
<polygon fill="none" stroke="black" points="110.5,-713 110.5,-734 179.5,-734 179.5,-713 110.5,-713"/>
<text text-anchor="start" x="115.5" y="-721" font-family="Linux libertine" font-size="10.00">(1, 720, 20) </text>
<polygon fill="none" stroke="black" points="62.5,-692 62.5,-713 110.5,-713 110.5,-692 62.5,-692"/>
<text text-anchor="start" x="67.5" y="-700" font-family="Linux libertine" font-size="10.00">output: </text>
<polygon fill="none" stroke="black" points="110.5,-692 110.5,-713 179.5,-713 179.5,-692 110.5,-692"/>
<text text-anchor="start" x="115.5" y="-700" font-family="Linux libertine" font-size="10.00">(1, 512, 10) </text>
</g>
<!-- 0&#45;&gt;1 -->
<g id="edge1" class="edge">
<title>0&#45;&gt;1</title>
<path fill="none" stroke="black" d="M89.5,-769.94C89.5,-762.45 89.5,-753.12 89.5,-744.24"/>
<polygon fill="black" stroke="black" points="93,-744.16 89.5,-734.16 86,-744.16 93,-744.16"/>
</g>
<!-- 2 -->
<g id="node3" class="node">
<title>2</title>
<polygon fill="#c1ffc1" stroke="transparent" points="179,-656 0,-656 0,-614 179,-614 179,-656"/>
<polygon fill="none" stroke="black" points="0.5,-614 0.5,-656 62.5,-656 62.5,-614 0.5,-614"/>
<text text-anchor="start" x="5.5" y="-638" font-family="Linux libertine" font-size="10.00">Sequential</text>
<text text-anchor="start" x="13" y="-627" font-family="Linux libertine" font-size="10.00">depth:3</text>
<polygon fill="none" stroke="black" points="62.5,-635 62.5,-656 110.5,-656 110.5,-635 62.5,-635"/>
<text text-anchor="start" x="72.5" y="-643" font-family="Linux libertine" font-size="10.00">input:</text>
<polygon fill="none" stroke="black" points="110.5,-635 110.5,-656 179.5,-656 179.5,-635 110.5,-635"/>
<text text-anchor="start" x="115.5" y="-643" font-family="Linux libertine" font-size="10.00">(1, 512, 10) </text>
<polygon fill="none" stroke="black" points="62.5,-614 62.5,-635 110.5,-635 110.5,-614 62.5,-614"/>
<text text-anchor="start" x="67.5" y="-622" font-family="Linux libertine" font-size="10.00">output: </text>
<polygon fill="none" stroke="black" points="110.5,-614 110.5,-635 179.5,-635 179.5,-614 110.5,-614"/>
<text text-anchor="start" x="118.5" y="-622" font-family="Linux libertine" font-size="10.00">(1, 256, 5) </text>
</g>
<!-- 1&#45;&gt;2 -->
<g id="edge2" class="edge">
<title>1&#45;&gt;2</title>
<path fill="none" stroke="black" d="M89.5,-691.63C89.5,-683.82 89.5,-674.73 89.5,-666.18"/>
<polygon fill="black" stroke="black" points="93,-666.16 89.5,-656.16 86,-666.16 93,-666.16"/>
</g>
<!-- 3 -->
<g id="node4" class="node">
<title>3</title>
<polygon fill="#c1ffc1" stroke="transparent" points="168.5,-578 10.5,-578 10.5,-536 168.5,-536 168.5,-578"/>
<polygon fill="none" stroke="black" points="10.5,-536 10.5,-578 57.5,-578 57.5,-536 10.5,-536"/>
<text text-anchor="start" x="16.5" y="-560" font-family="Linux libertine" font-size="10.00">Flatten</text>
<text text-anchor="start" x="15.5" y="-549" font-family="Linux libertine" font-size="10.00">depth:2</text>
<polygon fill="none" stroke="black" points="57.5,-557 57.5,-578 105.5,-578 105.5,-557 57.5,-557"/>
<text text-anchor="start" x="67.5" y="-565" font-family="Linux libertine" font-size="10.00">input:</text>
<polygon fill="none" stroke="black" points="105.5,-557 105.5,-578 168.5,-578 168.5,-557 105.5,-557"/>
<text text-anchor="start" x="110.5" y="-565" font-family="Linux libertine" font-size="10.00">(1, 256, 5) </text>
<polygon fill="none" stroke="black" points="57.5,-536 57.5,-557 105.5,-557 105.5,-536 57.5,-536"/>
<text text-anchor="start" x="62.5" y="-544" font-family="Linux libertine" font-size="10.00">output: </text>
<polygon fill="none" stroke="black" points="105.5,-536 105.5,-557 168.5,-557 168.5,-536 105.5,-536"/>
<text text-anchor="start" x="113.5" y="-544" font-family="Linux libertine" font-size="10.00">(1, 1280) </text>
</g>
<!-- 2&#45;&gt;3 -->
<g id="edge3" class="edge">
<title>2&#45;&gt;3</title>
<path fill="none" stroke="black" d="M89.5,-613.63C89.5,-605.82 89.5,-596.73 89.5,-588.18"/>
<polygon fill="black" stroke="black" points="93,-588.16 89.5,-578.16 86,-588.16 93,-588.16"/>
</g>
<!-- 4 -->
<g id="node5" class="node">
<title>4</title>
<polygon fill="#c1ffc1" stroke="transparent" points="165.5,-500 13.5,-500 13.5,-458 165.5,-458 165.5,-500"/>
<polygon fill="none" stroke="black" points="13.5,-458 13.5,-500 60.5,-500 60.5,-458 13.5,-458"/>
<text text-anchor="start" x="21.5" y="-482" font-family="Linux libertine" font-size="10.00">Linear</text>
<text text-anchor="start" x="18.5" y="-471" font-family="Linux libertine" font-size="10.00">depth:2</text>
<polygon fill="none" stroke="black" points="60.5,-479 60.5,-500 108.5,-500 108.5,-479 60.5,-479"/>
<text text-anchor="start" x="70.5" y="-487" font-family="Linux libertine" font-size="10.00">input:</text>
<polygon fill="none" stroke="black" points="108.5,-479 108.5,-500 165.5,-500 165.5,-479 108.5,-479"/>
<text text-anchor="start" x="113.5" y="-487" font-family="Linux libertine" font-size="10.00">(1, 1280) </text>
<polygon fill="none" stroke="black" points="60.5,-458 60.5,-479 108.5,-479 108.5,-458 60.5,-458"/>
<text text-anchor="start" x="65.5" y="-466" font-family="Linux libertine" font-size="10.00">output: </text>
<polygon fill="none" stroke="black" points="108.5,-458 108.5,-479 165.5,-479 165.5,-458 108.5,-458"/>
<text text-anchor="start" x="116.5" y="-466" font-family="Linux libertine" font-size="10.00">(1, 512) </text>
</g>
<!-- 3&#45;&gt;4 -->
<g id="edge4" class="edge">
<title>3&#45;&gt;4</title>
<path fill="none" stroke="black" d="M89.5,-535.63C89.5,-527.82 89.5,-518.73 89.5,-510.18"/>
<polygon fill="black" stroke="black" points="93,-510.16 89.5,-500.16 86,-510.16 93,-510.16"/>
</g>
<!-- 5 -->
<g id="node6" class="node">
<title>5</title>
<polygon fill="#c1ffc1" stroke="transparent" points="164,-422 15,-422 15,-380 164,-380 164,-422"/>
<polygon fill="none" stroke="black" points="15.5,-380 15.5,-422 65.5,-422 65.5,-380 15.5,-380"/>
<text text-anchor="start" x="20.5" y="-404" font-family="Linux libertine" font-size="10.00">Dropout</text>
<text text-anchor="start" x="22" y="-393" font-family="Linux libertine" font-size="10.00">depth:2</text>
<polygon fill="none" stroke="black" points="65.5,-401 65.5,-422 113.5,-422 113.5,-401 65.5,-401"/>
<text text-anchor="start" x="75.5" y="-409" font-family="Linux libertine" font-size="10.00">input:</text>
<polygon fill="none" stroke="black" points="113.5,-401 113.5,-422 164.5,-422 164.5,-401 113.5,-401"/>
<text text-anchor="start" x="118.5" y="-409" font-family="Linux libertine" font-size="10.00">(1, 512) </text>
<polygon fill="none" stroke="black" points="65.5,-380 65.5,-401 113.5,-401 113.5,-380 65.5,-380"/>
<text text-anchor="start" x="70.5" y="-388" font-family="Linux libertine" font-size="10.00">output: </text>
<polygon fill="none" stroke="black" points="113.5,-380 113.5,-401 164.5,-401 164.5,-380 113.5,-380"/>
<text text-anchor="start" x="118.5" y="-388" font-family="Linux libertine" font-size="10.00">(1, 512) </text>
</g>
<!-- 4&#45;&gt;5 -->
<g id="edge5" class="edge">
<title>4&#45;&gt;5</title>
<path fill="none" stroke="black" d="M89.5,-457.63C89.5,-449.82 89.5,-440.73 89.5,-432.18"/>
<polygon fill="black" stroke="black" points="93,-432.16 89.5,-422.16 86,-432.16 93,-432.16"/>
</g>
<!-- 6 -->
<g id="node7" class="node">
<title>6</title>
<polygon fill="#c1ffc1" stroke="transparent" points="162.5,-344 16.5,-344 16.5,-302 162.5,-302 162.5,-344"/>
<polygon fill="none" stroke="black" points="16.5,-302 16.5,-344 63.5,-344 63.5,-302 16.5,-302"/>
<text text-anchor="start" x="27" y="-326" font-family="Linux libertine" font-size="10.00">ReLU</text>
<text text-anchor="start" x="21.5" y="-315" font-family="Linux libertine" font-size="10.00">depth:2</text>
<polygon fill="none" stroke="black" points="63.5,-323 63.5,-344 111.5,-344 111.5,-323 63.5,-323"/>
<text text-anchor="start" x="73.5" y="-331" font-family="Linux libertine" font-size="10.00">input:</text>
<polygon fill="none" stroke="black" points="111.5,-323 111.5,-344 162.5,-344 162.5,-323 111.5,-323"/>
<text text-anchor="start" x="116.5" y="-331" font-family="Linux libertine" font-size="10.00">(1, 512) </text>
<polygon fill="none" stroke="black" points="63.5,-302 63.5,-323 111.5,-323 111.5,-302 63.5,-302"/>
<text text-anchor="start" x="68.5" y="-310" font-family="Linux libertine" font-size="10.00">output: </text>
<polygon fill="none" stroke="black" points="111.5,-302 111.5,-323 162.5,-323 162.5,-302 111.5,-302"/>
<text text-anchor="start" x="116.5" y="-310" font-family="Linux libertine" font-size="10.00">(1, 512) </text>
</g>
<!-- 5&#45;&gt;6 -->
<g id="edge6" class="edge">
<title>5&#45;&gt;6</title>
<path fill="none" stroke="black" d="M89.5,-379.63C89.5,-371.82 89.5,-362.73 89.5,-354.18"/>
<polygon fill="black" stroke="black" points="93,-354.16 89.5,-344.16 86,-354.16 93,-354.16"/>
</g>
<!-- 7 -->
<g id="node8" class="node">
<title>7</title>
<polygon fill="#c1ffc1" stroke="transparent" points="162.5,-266 16.5,-266 16.5,-224 162.5,-224 162.5,-266"/>
<polygon fill="none" stroke="black" points="16.5,-224 16.5,-266 63.5,-266 63.5,-224 16.5,-224"/>
<text text-anchor="start" x="24.5" y="-248" font-family="Linux libertine" font-size="10.00">Linear</text>
<text text-anchor="start" x="21.5" y="-237" font-family="Linux libertine" font-size="10.00">depth:2</text>
<polygon fill="none" stroke="black" points="63.5,-245 63.5,-266 111.5,-266 111.5,-245 63.5,-245"/>
<text text-anchor="start" x="73.5" y="-253" font-family="Linux libertine" font-size="10.00">input:</text>
<polygon fill="none" stroke="black" points="111.5,-245 111.5,-266 162.5,-266 162.5,-245 111.5,-245"/>
<text text-anchor="start" x="116.5" y="-253" font-family="Linux libertine" font-size="10.00">(1, 512) </text>
<polygon fill="none" stroke="black" points="63.5,-224 63.5,-245 111.5,-245 111.5,-224 63.5,-224"/>
<text text-anchor="start" x="68.5" y="-232" font-family="Linux libertine" font-size="10.00">output: </text>
<polygon fill="none" stroke="black" points="111.5,-224 111.5,-245 162.5,-245 162.5,-224 111.5,-224"/>
<text text-anchor="start" x="119.5" y="-232" font-family="Linux libertine" font-size="10.00">(1, 64) </text>
</g>
<!-- 6&#45;&gt;7 -->
<g id="edge7" class="edge">
<title>6&#45;&gt;7</title>
<path fill="none" stroke="black" d="M89.5,-301.63C89.5,-293.82 89.5,-284.73 89.5,-276.18"/>
<polygon fill="black" stroke="black" points="93,-276.16 89.5,-266.16 86,-276.16 93,-276.16"/>
</g>
<!-- 8 -->
<g id="node9" class="node">
<title>8</title>
<polygon fill="#c1ffc1" stroke="transparent" points="159.5,-188 19.5,-188 19.5,-146 159.5,-146 159.5,-188"/>
<polygon fill="none" stroke="black" points="19.5,-146 19.5,-188 66.5,-188 66.5,-146 19.5,-146"/>
<text text-anchor="start" x="30" y="-170" font-family="Linux libertine" font-size="10.00">ReLU</text>
<text text-anchor="start" x="24.5" y="-159" font-family="Linux libertine" font-size="10.00">depth:2</text>
<polygon fill="none" stroke="black" points="66.5,-167 66.5,-188 114.5,-188 114.5,-167 66.5,-167"/>
<text text-anchor="start" x="76.5" y="-175" font-family="Linux libertine" font-size="10.00">input:</text>
<polygon fill="none" stroke="black" points="114.5,-167 114.5,-188 159.5,-188 159.5,-167 114.5,-167"/>
<text text-anchor="start" x="119.5" y="-175" font-family="Linux libertine" font-size="10.00">(1, 64) </text>
<polygon fill="none" stroke="black" points="66.5,-146 66.5,-167 114.5,-167 114.5,-146 66.5,-146"/>
<text text-anchor="start" x="71.5" y="-154" font-family="Linux libertine" font-size="10.00">output: </text>
<polygon fill="none" stroke="black" points="114.5,-146 114.5,-167 159.5,-167 159.5,-146 114.5,-146"/>
<text text-anchor="start" x="119.5" y="-154" font-family="Linux libertine" font-size="10.00">(1, 64) </text>
</g>
<!-- 7&#45;&gt;8 -->
<g id="edge8" class="edge">
<title>7&#45;&gt;8</title>
<path fill="none" stroke="black" d="M89.5,-223.63C89.5,-215.82 89.5,-206.73 89.5,-198.18"/>
<polygon fill="black" stroke="black" points="93,-198.16 89.5,-188.16 86,-198.16 93,-198.16"/>
</g>
<!-- 9 -->
<g id="node10" class="node">
<title>9</title>
<polygon fill="#c1ffc1" stroke="transparent" points="159.5,-110 19.5,-110 19.5,-68 159.5,-68 159.5,-110"/>
<polygon fill="none" stroke="black" points="19.5,-68 19.5,-110 66.5,-110 66.5,-68 19.5,-68"/>
<text text-anchor="start" x="27.5" y="-92" font-family="Linux libertine" font-size="10.00">Linear</text>
<text text-anchor="start" x="24.5" y="-81" font-family="Linux libertine" font-size="10.00">depth:2</text>
<polygon fill="none" stroke="black" points="66.5,-89 66.5,-110 114.5,-110 114.5,-89 66.5,-89"/>
<text text-anchor="start" x="76.5" y="-97" font-family="Linux libertine" font-size="10.00">input:</text>
<polygon fill="none" stroke="black" points="114.5,-89 114.5,-110 159.5,-110 159.5,-89 114.5,-89"/>
<text text-anchor="start" x="119.5" y="-97" font-family="Linux libertine" font-size="10.00">(1, 64) </text>
<polygon fill="none" stroke="black" points="66.5,-68 66.5,-89 114.5,-89 114.5,-68 66.5,-68"/>
<text text-anchor="start" x="71.5" y="-76" font-family="Linux libertine" font-size="10.00">output: </text>
<polygon fill="none" stroke="black" points="114.5,-68 114.5,-89 159.5,-89 159.5,-68 114.5,-68"/>
<text text-anchor="start" x="122.5" y="-76" font-family="Linux libertine" font-size="10.00">(1, 1) </text>
</g>
<!-- 8&#45;&gt;9 -->
<g id="edge9" class="edge">
<title>8&#45;&gt;9</title>
<path fill="none" stroke="black" d="M89.5,-145.63C89.5,-137.82 89.5,-128.73 89.5,-120.18"/>
<polygon fill="black" stroke="black" points="93,-120.16 89.5,-110.16 86,-120.16 93,-120.16"/>
</g>
<!-- 10 -->
<g id="node11" class="node">
<title>10</title>
<polygon fill="lightyellow" stroke="transparent" points="146,-32 33,-32 33,0 146,0 146,-32"/>
<polygon fill="none" stroke="black" points="33.5,0 33.5,-32 110.5,-32 110.5,0 33.5,0"/>
<text text-anchor="start" x="38.5" y="-19" font-family="Linux libertine" font-size="10.00">output&#45;tensor</text>
<text text-anchor="start" x="53.5" y="-8" font-family="Linux libertine" font-size="10.00">depth:0</text>
<polygon fill="none" stroke="black" points="110.5,0 110.5,-32 146.5,-32 146.5,0 110.5,0"/>
<text text-anchor="start" x="115.5" y="-13.5" font-family="Linux libertine" font-size="10.00">(1, 1)</text>
</g>
<!-- 9&#45;&gt;10 -->
<g id="edge10" class="edge">
<title>9&#45;&gt;10</title>
<path fill="none" stroke="black" d="M89.5,-67.84C89.5,-59.89 89.5,-50.66 89.5,-42.26"/>
<polygon fill="black" stroke="black" points="93,-42.24 89.5,-32.24 86,-42.24 93,-42.24"/>
</g>
</g>
</svg>
