<?xml version="1.0" encoding="UTF-8" standalone="no"?>
<!DOCTYPE svg PUBLIC "-//W3C//DTD SVG 1.1//EN"
 "http://www.w3.org/Graphics/SVG/1.1/DTD/svg11.dtd">
<!-- Generated by graphviz version 2.43.0 (0)
 -->
<!-- Title: model Pages: 1 -->
<svg width="259pt" height="654pt"
 viewBox="0.00 0.00 259.00 654.00" xmlns="http://www.w3.org/2000/svg" xmlns:xlink="http://www.w3.org/1999/xlink">
<g id="graph0" class="graph" transform="scale(1 1) rotate(0) translate(4 650)">
<title>model</title>
<polygon fill="white" stroke="transparent" points="-4,4 -4,-650 255,-650 255,4 -4,4"/>
<!-- 0 -->
<g id="node1" class="node">
<title>0</title>
<polygon fill="lightyellow" stroke="transparent" points="152,-646 16,-646 16,-614 152,-614 152,-646"/>
<polygon fill="none" stroke="black" points="16,-614 16,-646 86,-646 86,-614 16,-614"/>
<text text-anchor="start" x="21" y="-633" font-family="Linux libertine" font-size="10.00">input&#45;tensor</text>
<text text-anchor="start" x="32.5" y="-622" font-family="Linux libertine" font-size="10.00">depth:0</text>
<polygon fill="none" stroke="black" points="86,-614 86,-646 152,-646 152,-614 86,-614"/>
<text text-anchor="start" x="91" y="-627.5" font-family="Linux libertine" font-size="10.00">(1, 720, 20)</text>
</g>
<!-- 1 -->
<g id="node2" class="node">
<title>1</title>
<polygon fill="#c1ffc1" stroke="transparent" points="228,-578 64,-578 64,-536 228,-536 228,-578"/>
<polygon fill="none" stroke="black" points="64,-536 64,-578 111,-578 111,-536 64,-536"/>
<text text-anchor="start" x="69" y="-560" font-family="Linux libertine" font-size="10.00">Conv1d</text>
<text text-anchor="start" x="69" y="-549" font-family="Linux libertine" font-size="10.00">depth:2</text>
<polygon fill="none" stroke="black" points="111,-557 111,-578 159,-578 159,-557 111,-557"/>
<text text-anchor="start" x="121" y="-565" font-family="Linux libertine" font-size="10.00">input:</text>
<polygon fill="none" stroke="black" points="159,-557 159,-578 228,-578 228,-557 159,-557"/>
<text text-anchor="start" x="164" y="-565" font-family="Linux libertine" font-size="10.00">(1, 720, 20) </text>
<polygon fill="none" stroke="black" points="111,-536 111,-557 159,-557 159,-536 111,-536"/>
<text text-anchor="start" x="116" y="-544" font-family="Linux libertine" font-size="10.00">output: </text>
<polygon fill="none" stroke="black" points="159,-536 159,-557 228,-557 228,-536 159,-536"/>
<text text-anchor="start" x="164" y="-544" font-family="Linux libertine" font-size="10.00">(1, 720, 20) </text>
</g>
<!-- 0&#45;&gt;1 -->
<g id="edge2" class="edge">
<title>0&#45;&gt;1</title>
<path fill="none" stroke="black" d="M97.15,-613.94C104.26,-605.8 113.27,-595.48 121.61,-585.93"/>
<polygon fill="black" stroke="black" points="124.46,-587.99 128.4,-578.16 119.19,-583.39 124.46,-587.99"/>
</g>
<!-- 6 -->
<g id="node7" class="node">
<title>6</title>
<polygon fill="aliceblue" stroke="transparent" points="182,-188 0,-188 0,-146 182,-146 182,-188"/>
<polygon fill="none" stroke="black" points="0,-146 0,-188 47,-188 47,-146 0,-146"/>
<text text-anchor="start" x="14" y="-170" font-family="Linux libertine" font-size="10.00">add</text>
<text text-anchor="start" x="5" y="-159" font-family="Linux libertine" font-size="10.00">depth:1</text>
<polygon fill="none" stroke="black" points="47,-167 47,-188 95,-188 95,-167 47,-167"/>
<text text-anchor="start" x="57" y="-175" font-family="Linux libertine" font-size="10.00">input:</text>
<polygon fill="none" stroke="black" points="95,-167 95,-188 182,-188 182,-167 95,-167"/>
<text text-anchor="start" x="100" y="-175" font-family="Linux libertine" font-size="10.00">2 x (1, 720, 20) </text>
<polygon fill="none" stroke="black" points="47,-146 47,-167 95,-167 95,-146 47,-146"/>
<text text-anchor="start" x="52" y="-154" font-family="Linux libertine" font-size="10.00">output: </text>
<polygon fill="none" stroke="black" points="95,-146 95,-167 182,-167 182,-146 95,-146"/>
<text text-anchor="start" x="109" y="-154" font-family="Linux libertine" font-size="10.00">(1, 720, 20) </text>
</g>
<!-- 0&#45;&gt;6 -->
<g id="edge1" class="edge">
<title>0&#45;&gt;6</title>
<path fill="none" stroke="black" d="M74.04,-613.9C67.87,-604.01 60.17,-590.63 55,-578 37.94,-536.29 29,-525.06 29,-480 29,-480 29,-480 29,-322 29,-277.63 29.78,-264.45 48,-224 52.46,-214.09 58.99,-204.33 65.62,-195.8"/>
<polygon fill="black" stroke="black" points="68.34,-198 71.94,-188.04 62.92,-193.58 68.34,-198"/>
</g>
<!-- 2 -->
<g id="node3" class="node">
<title>2</title>
<polygon fill="#c1ffc1" stroke="transparent" points="251,-500 57,-500 57,-458 251,-458 251,-500"/>
<polygon fill="none" stroke="black" points="57,-458 57,-500 134,-500 134,-458 57,-458"/>
<text text-anchor="start" x="62" y="-482" font-family="Linux libertine" font-size="10.00">BatchNorm1d</text>
<text text-anchor="start" x="77" y="-471" font-family="Linux libertine" font-size="10.00">depth:2</text>
<polygon fill="none" stroke="black" points="134,-479 134,-500 182,-500 182,-479 134,-479"/>
<text text-anchor="start" x="144" y="-487" font-family="Linux libertine" font-size="10.00">input:</text>
<polygon fill="none" stroke="black" points="182,-479 182,-500 251,-500 251,-479 182,-479"/>
<text text-anchor="start" x="187" y="-487" font-family="Linux libertine" font-size="10.00">(1, 720, 20) </text>
<polygon fill="none" stroke="black" points="134,-458 134,-479 182,-479 182,-458 134,-458"/>
<text text-anchor="start" x="139" y="-466" font-family="Linux libertine" font-size="10.00">output: </text>
<polygon fill="none" stroke="black" points="182,-458 182,-479 251,-479 251,-458 182,-458"/>
<text text-anchor="start" x="187" y="-466" font-family="Linux libertine" font-size="10.00">(1, 720, 20) </text>
</g>
<!-- 1&#45;&gt;2 -->
<g id="edge3" class="edge">
<title>1&#45;&gt;2</title>
<path fill="none" stroke="black" d="M148.14,-535.63C148.97,-527.82 149.92,-518.73 150.82,-510.18"/>
<polygon fill="black" stroke="black" points="154.31,-510.47 151.88,-500.16 147.35,-509.74 154.31,-510.47"/>
</g>
<!-- 3 -->
<g id="node4" class="node">
<title>3</title>
<polygon fill="#c1ffc1" stroke="transparent" points="236,-422 72,-422 72,-380 236,-380 236,-422"/>
<polygon fill="none" stroke="black" points="72,-380 72,-422 119,-422 119,-380 72,-380"/>
<text text-anchor="start" x="82.5" y="-404" font-family="Linux libertine" font-size="10.00">ReLU</text>
<text text-anchor="start" x="77" y="-393" font-family="Linux libertine" font-size="10.00">depth:2</text>
<polygon fill="none" stroke="black" points="119,-401 119,-422 167,-422 167,-401 119,-401"/>
<text text-anchor="start" x="129" y="-409" font-family="Linux libertine" font-size="10.00">input:</text>
<polygon fill="none" stroke="black" points="167,-401 167,-422 236,-422 236,-401 167,-401"/>
<text text-anchor="start" x="172" y="-409" font-family="Linux libertine" font-size="10.00">(1, 720, 20) </text>
<polygon fill="none" stroke="black" points="119,-380 119,-401 167,-401 167,-380 119,-380"/>
<text text-anchor="start" x="124" y="-388" font-family="Linux libertine" font-size="10.00">output: </text>
<polygon fill="none" stroke="black" points="167,-380 167,-401 236,-401 236,-380 167,-380"/>
<text text-anchor="start" x="172" y="-388" font-family="Linux libertine" font-size="10.00">(1, 720, 20) </text>
</g>
<!-- 2&#45;&gt;3 -->
<g id="edge4" class="edge">
<title>2&#45;&gt;3</title>
<path fill="none" stroke="black" d="M154,-457.63C154,-449.82 154,-440.73 154,-432.18"/>
<polygon fill="black" stroke="black" points="157.5,-432.16 154,-422.16 150.5,-432.16 157.5,-432.16"/>
</g>
<!-- 4 -->
<g id="node5" class="node">
<title>4</title>
<polygon fill="#c1ffc1" stroke="transparent" points="236,-344 72,-344 72,-302 236,-302 236,-344"/>
<polygon fill="none" stroke="black" points="72,-302 72,-344 119,-344 119,-302 72,-302"/>
<text text-anchor="start" x="77" y="-326" font-family="Linux libertine" font-size="10.00">Conv1d</text>
<text text-anchor="start" x="77" y="-315" font-family="Linux libertine" font-size="10.00">depth:2</text>
<polygon fill="none" stroke="black" points="119,-323 119,-344 167,-344 167,-323 119,-323"/>
<text text-anchor="start" x="129" y="-331" font-family="Linux libertine" font-size="10.00">input:</text>
<polygon fill="none" stroke="black" points="167,-323 167,-344 236,-344 236,-323 167,-323"/>
<text text-anchor="start" x="172" y="-331" font-family="Linux libertine" font-size="10.00">(1, 720, 20) </text>
<polygon fill="none" stroke="black" points="119,-302 119,-323 167,-323 167,-302 119,-302"/>
<text text-anchor="start" x="124" y="-310" font-family="Linux libertine" font-size="10.00">output: </text>
<polygon fill="none" stroke="black" points="167,-302 167,-323 236,-323 236,-302 167,-302"/>
<text text-anchor="start" x="172" y="-310" font-family="Linux libertine" font-size="10.00">(1, 720, 20) </text>
</g>
<!-- 3&#45;&gt;4 -->
<g id="edge5" class="edge">
<title>3&#45;&gt;4</title>
<path fill="none" stroke="black" d="M154,-379.63C154,-371.82 154,-362.73 154,-354.18"/>
<polygon fill="black" stroke="black" points="157.5,-354.16 154,-344.16 150.5,-354.16 157.5,-354.16"/>
</g>
<!-- 5 -->
<g id="node6" class="node">
<title>5</title>
<polygon fill="#c1ffc1" stroke="transparent" points="251,-266 57,-266 57,-224 251,-224 251,-266"/>
<polygon fill="none" stroke="black" points="57,-224 57,-266 134,-266 134,-224 57,-224"/>
<text text-anchor="start" x="62" y="-248" font-family="Linux libertine" font-size="10.00">BatchNorm1d</text>
<text text-anchor="start" x="77" y="-237" font-family="Linux libertine" font-size="10.00">depth:2</text>
<polygon fill="none" stroke="black" points="134,-245 134,-266 182,-266 182,-245 134,-245"/>
<text text-anchor="start" x="144" y="-253" font-family="Linux libertine" font-size="10.00">input:</text>
<polygon fill="none" stroke="black" points="182,-245 182,-266 251,-266 251,-245 182,-245"/>
<text text-anchor="start" x="187" y="-253" font-family="Linux libertine" font-size="10.00">(1, 720, 20) </text>
<polygon fill="none" stroke="black" points="134,-224 134,-245 182,-245 182,-224 134,-224"/>
<text text-anchor="start" x="139" y="-232" font-family="Linux libertine" font-size="10.00">output: </text>
<polygon fill="none" stroke="black" points="182,-224 182,-245 251,-245 251,-224 182,-224"/>
<text text-anchor="start" x="187" y="-232" font-family="Linux libertine" font-size="10.00">(1, 720, 20) </text>
</g>
<!-- 4&#45;&gt;5 -->
<g id="edge6" class="edge">
<title>4&#45;&gt;5</title>
<path fill="none" stroke="black" d="M154,-301.63C154,-293.82 154,-284.73 154,-276.18"/>
<polygon fill="black" stroke="black" points="157.5,-276.16 154,-266.16 150.5,-276.16 157.5,-276.16"/>
</g>
<!-- 5&#45;&gt;6 -->
<g id="edge7" class="edge">
<title>5&#45;&gt;6</title>
<path fill="none" stroke="black" d="M137.12,-223.63C130.07,-215.13 121.77,-205.12 114.16,-195.94"/>
<polygon fill="black" stroke="black" points="116.79,-193.62 107.71,-188.16 111.4,-198.09 116.79,-193.62"/>
</g>
<!-- 7 -->
<g id="node8" class="node">
<title>7</title>
<polygon fill="#c1ffc1" stroke="transparent" points="173,-110 9,-110 9,-68 173,-68 173,-110"/>
<polygon fill="none" stroke="black" points="9,-68 9,-110 56,-110 56,-68 9,-68"/>
<text text-anchor="start" x="19.5" y="-92" font-family="Linux libertine" font-size="10.00">ReLU</text>
<text text-anchor="start" x="14" y="-81" font-family="Linux libertine" font-size="10.00">depth:1</text>
<polygon fill="none" stroke="black" points="56,-89 56,-110 104,-110 104,-89 56,-89"/>
<text text-anchor="start" x="66" y="-97" font-family="Linux libertine" font-size="10.00">input:</text>
<polygon fill="none" stroke="black" points="104,-89 104,-110 173,-110 173,-89 104,-89"/>
<text text-anchor="start" x="109" y="-97" font-family="Linux libertine" font-size="10.00">(1, 720, 20) </text>
<polygon fill="none" stroke="black" points="56,-68 56,-89 104,-89 104,-68 56,-68"/>
<text text-anchor="start" x="61" y="-76" font-family="Linux libertine" font-size="10.00">output: </text>
<polygon fill="none" stroke="black" points="104,-68 104,-89 173,-89 173,-68 104,-68"/>
<text text-anchor="start" x="109" y="-76" font-family="Linux libertine" font-size="10.00">(1, 720, 20) </text>
</g>
<!-- 6&#45;&gt;7 -->
<g id="edge8" class="edge">
<title>6&#45;&gt;7</title>
<path fill="none" stroke="black" d="M91,-145.63C91,-137.82 91,-128.73 91,-120.18"/>
<polygon fill="black" stroke="black" points="94.5,-120.16 91,-110.16 87.5,-120.16 94.5,-120.16"/>
</g>
<!-- 8 -->
<g id="node9" class="node">
<title>8</title>
<polygon fill="lightyellow" stroke="transparent" points="162.5,-32 19.5,-32 19.5,0 162.5,0 162.5,-32"/>
<polygon fill="none" stroke="black" points="20,0 20,-32 97,-32 97,0 20,0"/>
<text text-anchor="start" x="25" y="-19" font-family="Linux libertine" font-size="10.00">output&#45;tensor</text>
<text text-anchor="start" x="40" y="-8" font-family="Linux libertine" font-size="10.00">depth:0</text>
<polygon fill="none" stroke="black" points="97,0 97,-32 163,-32 163,0 97,0"/>
<text text-anchor="start" x="102" y="-13.5" font-family="Linux libertine" font-size="10.00">(1, 720, 20)</text>
</g>
<!-- 7&#45;&gt;8 -->
<g id="edge9" class="edge">
<title>7&#45;&gt;8</title>
<path fill="none" stroke="black" d="M91,-67.84C91,-59.89 91,-50.66 91,-42.26"/>
<polygon fill="black" stroke="black" points="94.5,-42.24 91,-32.24 87.5,-42.24 94.5,-42.24"/>
</g>
</g>
</svg>
